<svg xmlns="http://www.w3.org/2000/svg" xmlns:xlink="http://www.w3.org/1999/xlink" x="0" y="0" width="702" height="302" style="
        width:702px;
        height:302px;
        background: #FFF;
        fill: none;
">
        <svg xmlns="http://www.w3.org/2000/svg"><g><defs><pattern id=".08836791349176765" width="10" height="10" patternUnits="userSpaceOnUse"><path d="M 10 0 L 0 0 0 10" fill="none" stroke="lightgray" stroke-width="0.5"/></pattern></defs><rect width="100%" height="100%" fill="url(#.08836791349176765)" stroke="lightgray" stroke-width="0.5"/></g></svg>
        
        <svg xmlns="http://www.w3.org/2000/svg" class="role-diagram-draw-area" style="overflow: visible;"><g class="shapes-region" style="stroke: black; fill: none;"><g class="composite-shape"><path class="real" d=" M128.72,89.33 L161.06,112.82 L148.7,150.83 L108.74,150.83 L96.38,112.82 Z" style="stroke-width: 8px; stroke: rgb(0, 0, 0); stroke-opacity: 1; fill: none; fill-opacity: 1;"/></g><g class="composite-shape"><path class="real" d=" M82.77,112.82 C82.77,105.3 88.86,99.21 96.38,99.21 C103.9,99.21 110,105.3 110,112.82 C110,120.34 103.9,126.44 96.38,126.44 C88.86,126.44 82.77,120.34 82.77,112.82 Z" style="stroke-width: 1px; stroke: rgb(0, 0, 0); fill: rgb(255, 255, 255); fill-opacity: 1;"/></g><g class="composite-shape"><path class="real" d=" M115.1,89.33 C115.1,81.81 121.2,75.71 128.72,75.71 C136.24,75.71 142.34,81.81 142.34,89.33 C142.34,96.85 136.24,102.94 128.72,102.94 C121.2,102.94 115.1,96.85 115.1,89.33 Z" style="stroke-width: 1px; stroke: rgb(0, 0, 0); fill: rgb(255, 255, 255); fill-opacity: 1;"/></g><g class="composite-shape"><path class="real" d=" M147.44,112.82 C147.44,105.3 153.54,99.21 161.06,99.21 C168.58,99.21 174.67,105.3 174.67,112.82 C174.67,120.34 168.58,126.44 161.06,126.44 C153.54,126.44 147.44,120.34 147.44,112.82 Z" style="stroke-width: 1px; stroke: rgb(0, 0, 0); fill: rgb(255, 255, 255); fill-opacity: 1;"/></g><g class="composite-shape"><path class="real" d=" M135.09,150.83 C135.09,143.31 141.19,137.22 148.7,137.22 C156.22,137.22 162.32,143.31 162.32,150.83 C162.32,158.35 156.22,164.45 148.7,164.45 C141.19,164.45 135.09,158.35 135.09,150.83 Z" style="stroke-width: 1px; stroke: rgb(0, 0, 0); fill: rgb(255, 255, 255); fill-opacity: 1;"/></g><g class="composite-shape"><path class="real" d=" M95.12,150.83 C95.12,143.31 101.22,137.22 108.74,137.22 C116.26,137.22 122.35,143.31 122.35,150.83 C122.35,158.35 116.26,164.45 108.74,164.45 C101.22,164.45 95.12,158.35 95.12,150.83 Z" style="stroke-width: 1px; stroke: rgb(0, 0, 0); fill: rgb(255, 255, 255); fill-opacity: 1;"/></g><g/></g><g/><g/><g/></svg>
        <svg xmlns="http://www.w3.org/2000/svg" xmlns:xlink="http://www.w3.org/1999/xlink" width="700" height="300" style="width:700px;height:300px;font-family:Asana-Math, Asana;background:#FFF;"></svg>
</svg>
